<svg width="77" height="25" viewBox="0 0 77 25" fill="none" xmlns="http://www.w3.org/2000/svg">
<path d="M7.76562 20.6719C8.59896 20.6719 9.27604 20.4427 9.79688 19.9844C10.3177 19.526 10.5885 18.9167 10.6094 18.1562H14.8438C14.8333 19.3021 14.5208 20.3542 13.9062 21.3125C13.2917 22.2604 12.4479 23 11.375 23.5312C10.3125 24.0521 9.13542 24.3125 7.84375 24.3125C5.42708 24.3125 3.52083 23.5469 2.125 22.0156C0.729167 20.474 0.03125 18.349 0.03125 15.6406V15.3438C0.03125 12.7396 0.723958 10.6615 2.10938 9.10938C3.49479 7.55729 5.39583 6.78125 7.8125 6.78125C9.92708 6.78125 11.6198 7.38542 12.8906 8.59375C14.1719 9.79167 14.8229 11.3906 14.8438 13.3906H10.6094C10.5885 12.5156 10.3177 11.8073 9.79688 11.2656C9.27604 10.7135 8.58854 10.4375 7.73438 10.4375C6.68229 10.4375 5.88542 10.8229 5.34375 11.5938C4.8125 12.3542 4.54688 13.5938 4.54688 15.3125V15.7812C4.54688 17.5208 4.8125 18.7708 5.34375 19.5312C5.875 20.2917 6.68229 20.6719 7.76562 20.6719ZM16.7188 15.3906C16.7188 13.7135 17.0417 12.2188 17.6875 10.9062C18.3333 9.59375 19.2604 8.57812 20.4688 7.85938C21.6875 7.14062 23.099 6.78125 24.7031 6.78125C26.9844 6.78125 28.8438 7.47917 30.2812 8.875C31.7292 10.2708 32.5365 12.1667 32.7031 14.5625L32.7344 15.7188C32.7344 18.3125 32.0104 20.3958 30.5625 21.9688C29.1146 23.5312 27.1719 24.3125 24.7344 24.3125C22.2969 24.3125 20.349 23.5312 18.8906 21.9688C17.4427 20.4062 16.7188 18.2812 16.7188 15.5938V15.3906ZM21.2344 15.7188C21.2344 17.3229 21.5365 18.5521 22.1406 19.4062C22.7448 20.25 23.6094 20.6719 24.7344 20.6719C25.8281 20.6719 26.6823 20.2552 27.2969 19.4219C27.9115 18.5781 28.2188 17.2344 28.2188 15.3906C28.2188 13.8177 27.9115 12.599 27.2969 11.7344C26.6823 10.8698 25.8177 10.4375 24.7031 10.4375C23.599 10.4375 22.7448 10.8698 22.1406 11.7344C21.5365 12.5885 21.2344 13.9167 21.2344 15.7188ZM34.8125 15.4219C34.8125 12.7865 35.401 10.6875 36.5781 9.125C37.7656 7.5625 39.3854 6.78125 41.4375 6.78125C43.0833 6.78125 44.4427 7.39583 45.5156 8.625V0H50.0469V24H45.9688L45.75 22.2031C44.625 23.6094 43.1771 24.3125 41.4062 24.3125C39.4167 24.3125 37.8177 23.5312 36.6094 21.9688C35.4115 20.3958 34.8125 18.2135 34.8125 15.4219ZM39.3281 15.75C39.3281 17.3333 39.6042 18.5469 40.1562 19.3906C40.7083 20.2344 41.5104 20.6562 42.5625 20.6562C43.9583 20.6562 44.9427 20.0677 45.5156 18.8906V12.2188C44.9531 11.0417 43.9792 10.4531 42.5938 10.4531C40.4167 10.4531 39.3281 12.2188 39.3281 15.75ZM61.3281 24.3125C58.849 24.3125 56.8281 23.5521 55.2656 22.0312C53.7135 20.5104 52.9375 18.4844 52.9375 15.9531V15.5156C52.9375 13.8177 53.2656 12.3021 53.9219 10.9688C54.5781 9.625 55.5052 8.59375 56.7031 7.875C57.9115 7.14583 59.2865 6.78125 60.8281 6.78125C63.1406 6.78125 64.9583 7.51042 66.2812 8.96875C67.6146 10.4271 68.2812 12.4948 68.2812 15.1719V17.0156H57.5156C57.6615 18.1198 58.099 19.0052 58.8281 19.6719C59.5677 20.3385 60.5 20.6719 61.625 20.6719C63.3646 20.6719 64.724 20.0417 65.7031 18.7812L67.9219 21.2656C67.2448 22.224 66.3281 22.974 65.1719 23.5156C64.0156 24.0469 62.7344 24.3125 61.3281 24.3125ZM60.8125 10.4375C59.9167 10.4375 59.1875 10.7396 58.625 11.3438C58.0729 11.9479 57.7188 12.8125 57.5625 13.9375H63.8438V13.5781C63.8229 12.5781 63.5521 11.8073 63.0312 11.2656C62.5104 10.7135 61.7708 10.4375 60.8125 10.4375ZM71.0938 21.7812C71.0938 21.0625 71.3333 20.4792 71.8125 20.0312C72.3021 19.5833 72.9115 19.3594 73.6406 19.3594C74.3802 19.3594 74.9896 19.5833 75.4688 20.0312C75.9583 20.4792 76.2031 21.0625 76.2031 21.7812C76.2031 22.4896 75.9635 23.0677 75.4844 23.5156C75.0052 23.9531 74.3906 24.1719 73.6406 24.1719C72.901 24.1719 72.2917 23.9531 71.8125 23.5156C71.3333 23.0677 71.0938 22.4896 71.0938 21.7812Z" fill="#1D2433"/>
</svg>
