<svg width="344" height="415" viewBox="0 0 344 415" fill="none" xmlns="http://www.w3.org/2000/svg">
<path d="M0.929227 223.154C1.77922 197.019 9.45918 169.894 23.6091 142.419L24.4741 143.779L42.669 174.529L58.3339 184.789L93.4238 202.089L114.559 211.554L112.829 225.819L111.089 244.539L110.349 257.674L110.109 271.064L110.684 279.634L112.114 280.819L178.393 304.113L230.393 281.669L231.668 274.939L233.238 262.214L234.353 247.464V222.644L233.258 204.234L230.898 181.169L229.693 175.514L232.238 164.944L234.353 150.034L234.168 143.374L232.458 134.664L230.168 129.444L227.403 125.944L220.093 121.889L214.858 121.304L210.533 113.374L204.733 106.009L198.998 101.009L194.598 98.5945L195.788 81.3846L198.603 76.5996L200.013 73.6896L202.728 72.6896L206.763 70.3996L212.763 64.7446L217.168 55.8747L218.788 47.2347L219.078 47.3047L218.938 46.4297L219.023 45.9947L218.848 45.8497L218.038 40.6348C241.518 54.7347 263.668 75.8296 282.168 97.7295C315.223 136.924 336.778 178.694 342.292 221.564C347.667 264.429 337.268 308.403 310.568 332.163C283.868 355.803 240.998 359.233 201.438 374.908C161.998 390.708 125.864 418.638 97.0787 413.738C68.2989 408.713 46.864 370.738 29.7141 333.878C12.5692 296.873 -0.415767 260.999 0.929227 223.154Z" fill="#F2F2F2"/>
<path d="M149.333 27.66L156.908 35.305L163.908 40.2599L161.843 44.9149L159.668 51.0099L158.743 57.0899L158.268 63.7298L159.088 71.4048L162.533 80.2047L165.893 85.2047L171.168 89.6197L176.523 91.4947L176.188 93.4447L175.868 97.5297L173.868 97.8746L166.168 101.11L161.378 103.64L155.288 108.585L149.143 114.875L143.243 123.075L136.409 134.029L132.564 142.819L127.299 156.654L125.724 161.969L124.909 162.429L120.304 158.294L106.014 147.079L92.6437 136.714L88.9538 131.169L84.2538 126.095L78.0938 122.265L73.5388 123.815L69.1439 128.814L67.7489 135.494L71.2938 142.719L78.3488 150.584L84.4238 154.789L91.3087 164.209L99.9887 175.674L103.304 179.914L83.8688 171.804L64.7139 163.584L40.879 123.5L36.769 119.625C39.8223 114.855 43.064 110.08 46.494 105.3C72.3989 69.1048 109.204 32.8 148.143 24.895L149.333 27.66Z" fill="#F2F2F2"/>
<path d="M114.669 211.599C100.989 206.069 53.569 183.914 41.7891 173.814C28.4941 162.419 44.3841 153.609 49.389 156.544C53.174 158.764 83.8889 172.124 103.279 179.939" stroke="#0B0D12" stroke-width="2.5" stroke-miterlimit="10" stroke-linecap="round"/>
<path d="M72.0638 145.329L66.9239 155.774" stroke="#0B0D12" stroke-width="8" stroke-linecap="round" stroke-linejoin="round"/>
<path d="M89.2588 110.359L82.6288 123.844" stroke="#0B0D12" stroke-width="8" stroke-linecap="round" stroke-linejoin="round"/>
<path d="M195.788 81.4148C197.512 78.927 198.93 76.2411 200.013 73.4148" stroke="#0B0D12" stroke-width="2.5" stroke-miterlimit="10" stroke-linecap="round"/>
<path d="M170.413 32.5498C164.378 37.7848 159.863 46.7247 158.713 57.2347C156.823 74.5296 164.758 89.6495 176.523 91.4945" stroke="#0B0D12" stroke-width="2.5" stroke-miterlimit="10" stroke-linecap="round"/>
<path d="M117.144 196.789C109.344 238.904 109.409 278.659 110.919 280.169C114.169 283.419 189.418 298.669 230.418 281.669C235.363 260.169 236.198 214.724 229.918 174.264" stroke="#0B0D12" stroke-width="2.5" stroke-miterlimit="10" stroke-linecap="round"/>
<path d="M175.858 97.6646C150.978 103.165 135.173 130.704 125.319 162.804" stroke="#0B0D12" stroke-width="2.5" stroke-miterlimit="10" stroke-linecap="round"/>
<path d="M214.868 121.029C209.438 110.144 202.743 102.129 194.598 98.6245" stroke="#0B0D12" stroke-width="2.5" stroke-miterlimit="10" stroke-linecap="round"/>
<path d="M208.863 204.239C202.363 216.609 181.208 240.669 172.523 240.669C147.638 240.669 97.3287 173.054 84.5738 154.919C78.6088 150.774 68.0139 142.484 68.0189 134.08C68.0189 129.86 72.5188 121.08 79.1238 122.64C83.6738 123.71 89.9187 132.825 92.6237 136.694C101.779 143.014 159.708 190.914 164.168 195.554C164.313 192.529 166.613 187.144 169.733 181.519" stroke="#0B0D12" stroke-width="2.5" stroke-linecap="round" stroke-linejoin="round"/>
<path d="M200.013 73.4146C207.778 72.4946 218.738 60.9497 218.738 43.9848C218.738 34.5998 211.118 29.1099 208.643 26.5449C203.643 21.3449 200.643 7.47997 190.078 7.47997C187.078 7.47997 182.418 9.22496 179.488 9.22496C175.823 9.22496 168.528 2 161.173 2C148.854 2 146.099 13.3399 146.099 16.8249C146.099 29.5849 161.988 39.2148 164.098 40.3648C164.993 38.8998 169.098 33.4198 170.463 32.5898C172.108 36.0098 183.163 41.6748 191.503 46.7598C193.743 48.1298 195.588 53.9247 196.888 59.7847" stroke="#0B0D12" stroke-width="2.5" stroke-linecap="round" stroke-linejoin="round"/>
<path d="M198.833 71.1847C199.917 71.4366 201.049 71.3956 202.112 71.0659C203.175 70.7362 204.132 70.1296 204.883 69.3085C205.634 68.4873 206.154 67.481 206.388 66.3929C206.622 65.3048 206.563 64.1739 206.216 63.1164C205.869 62.0588 205.247 61.1125 204.413 60.3746C203.58 59.6368 202.565 59.1338 201.474 58.9174C200.382 58.701 199.252 58.7788 198.2 59.143C197.148 59.5072 196.212 60.1446 195.488 60.9898" stroke="#0B0D12" stroke-width="2.5" stroke-miterlimit="10" stroke-linecap="round"/>
<path d="M176.523 91.4946C176.298 93.5896 176.073 95.6896 175.858 97.6646" stroke="#0B0D12" stroke-width="2.5" stroke-miterlimit="10" stroke-linecap="round"/>
<path d="M181.343 110.594C186.883 110.694 193.843 109.594 193.978 107.639L195.788 81.4146" stroke="#0B0D12" stroke-width="2.5" stroke-miterlimit="10" stroke-linecap="round"/>
<path d="M224.278 123.669C246.368 135.704 226.613 198.209 212.668 204.609C196.898 204.609 165.083 181.784 165.083 174.079C165.083 166.374 195.638 108.07 224.278 123.669Z" stroke="#0B0D12" stroke-width="2.5" stroke-miterlimit="10" stroke-linecap="round"/>
<path d="M230.288 281.724C240.643 328.163 234.047 355.958 231.332 364.998L200.832 375.748L170.583 389.248C165.848 376.748 135.528 314.163 130.714 285.189C156.543 289.689 201.668 293.509 230.288 281.724Z" fill="#0B0D12"/>
<path d="M112.129 280.819C115.454 282.169 124.839 284.394 137.348 286.264L178.583 385.748L138.583 405.998L126.083 409.998L120.833 411.498L117.583 412.498L111.833 413.748C111.833 394.958 103.914 312.343 112.129 280.819Z" fill="#0B0D12"/>
<path d="M39.669 128.289C39.669 138.664 27.3291 144.139 25.5341 144.139C21.7741 144.139 21.7741 132.784 21.7741 129.844C21.7741 123.144 28.3091 118.24 33.274 118.24C38.239 118.24 39.669 122.409 39.669 128.289Z" stroke="#0B0D12" stroke-width="2.5" stroke-miterlimit="10" stroke-linecap="round"/>
<path d="M25.5491 144.139C27.3441 144.139 39.684 138.664 39.684 128.289C39.684 122.409 38.294 118.239 33.3091 118.239C30.8941 118.239 28.1141 119.394 25.8891 121.344L28.2291 91.3445L70.9388 94.6795L64.4939 177.179L21.7891 173.874L24.1691 143.499C24.343 143.695 24.5552 143.852 24.7926 143.963C25.03 144.073 25.2875 144.133 25.5491 144.139V144.139Z" fill="#0B0D12"/>
</svg>
